<svg width="3" height="3" viewBox="0 0 3 3" fill="none" xmlns="http://www.w3.org/2000/svg">
<path d="M2.85874 2.78571C2.82957 2.7619 2.05738 1.96322 2.05738 1.96322C2.02049 1.92144 2.03158 1.86272 2.08946 1.84246C2.63884 1.65011 2.82957 1.35714 2.82957 0.976191C2.82957 0.476191 2.21706 0 1.57109 0H0.0430012C0.0192645 0 0 0.0157536 0 0.0351642V2.96484C0 2.98425 0.0192645 3 0.0430012 3H0.311759C0.335496 3 0.35476 2.98425 0.35476 2.96484L0.33756 2.0417C0.33756 1.9974 0.355706 1.96153 0.409802 1.96153H1.45035C1.48225 1.96153 1.51218 1.98122 1.53059 2.0026L2.29842 2.98502C2.30641 2.99444 2.31957 3 2.33359 3C2.33359 3 2.85874 3 2.97601 3C3.06293 2.95238 2.88791 2.80952 2.85874 2.78571ZM1.18185 1.69351H0.415478C0.363275 1.69351 0.303331 1.6601 0.300407 1.61798C0.300407 1.61798 0.293699 0.719882 0.293699 0.632182C0.293699 0.544483 0.407738 0.521766 0.462951 0.585132L1.23887 1.58963C1.28436 1.64273 1.26123 1.69351 1.18185 1.69351ZM1.89793 1.60792C1.8195 1.63141 1.70491 1.56276 1.68986 1.54764L0.61466 0.394894C0.567874 0.341867 0.614144 0.26781 0.694126 0.26781H1.39599C1.87262 0.26781 2.26264 0.583515 2.26255 0.974893C2.26255 1.29348 2.13521 1.48871 1.89793 1.60792Z" fill="#F8532B"/>
</svg>
